<?xml version="1.0" encoding="UTF-8"?> <svg xmlns="http://www.w3.org/2000/svg" xmlns:xlink="http://www.w3.org/1999/xlink" viewBox="0 0 658.56 378.75"><defs><style>.cls-1{fill:#2bbee0;}.cls-2{fill:#3c3c3b;}.cls-3,.cls-4,.cls-5,.cls-6{fill-rule:evenodd;}.cls-3{fill:url(#Degradado_sin_nombre_94);}.cls-4{fill:url(#Degradado_sin_nombre_119);}.cls-5{fill:url(#Degradado_sin_nombre_94-2);}.cls-6{fill:url(#Degradado_sin_nombre_132);}</style><linearGradient id="Degradado_sin_nombre_94" x1="257.38" y1="240.35" x2="257.38" y2="7.71" gradientUnits="userSpaceOnUse"><stop offset="0" stop-color="#6aecff"></stop><stop offset="0.26" stop-color="#5cc2ec"></stop><stop offset="0.84" stop-color="#3859bb"></stop><stop offset="1" stop-color="#2d3aad"></stop></linearGradient><linearGradient id="Degradado_sin_nombre_119" x1="257.38" y1="139.62" x2="329.16" y2="139.62" gradientUnits="userSpaceOnUse"><stop offset="0" stop-color="#55f7ff"></stop><stop offset="0.23" stop-color="#4dcde5"></stop><stop offset="0.75" stop-color="#3864a4"></stop><stop offset="1" stop-color="#2d2e82"></stop></linearGradient><linearGradient id="Degradado_sin_nombre_94-2" x1="214.82" y1="87.7" x2="413.05" y2="87.7" xlink:href="#Degradado_sin_nombre_94"></linearGradient><linearGradient id="Degradado_sin_nombre_132" x1="337.5" y1="67.57" x2="399.47" y2="174.9" gradientUnits="userSpaceOnUse"><stop offset="0.37" stop-color="#00dff1"></stop><stop offset="0.53" stop-color="#0bb5d7"></stop><stop offset="0.9" stop-color="#254c95"></stop><stop offset="1" stop-color="#2d2e82"></stop></linearGradient></defs><title>Recurso 1</title><g id="Capa_2" data-name="Capa 2"><g id="Capa_1-2" data-name="Capa 1"><path class="cls-1" d="M18.85,333.7a38.23,38.23,0,0,1-9.06-.91,13.05,13.05,0,0,1-5.8-2.9,10.86,10.86,0,0,1-3.08-5.22A29.49,29.49,0,0,1,0,316.73V301.22a29.58,29.58,0,0,1,.91-7.9A10.85,10.85,0,0,1,4,288.06a13.26,13.26,0,0,1,5.8-2.9,38.29,38.29,0,0,1,9.06-.9H53.13v9.49H19.35a18.21,18.21,0,0,0-4.16.4,5.47,5.47,0,0,0-2.58,1.34,5.08,5.08,0,0,0-1.3,2.5A17.23,17.23,0,0,0,11,301.8v14.5a17.14,17.14,0,0,0,.36,3.84,4.94,4.94,0,0,0,1.3,2.46,5.13,5.13,0,0,0,2.61,1.31,20.41,20.41,0,0,0,4.21.36h33.7v9.43Z"></path><path class="cls-1" d="M102.93,333.7,74,315.72v18h-11V284.26h38.71a52.74,52.74,0,0,1,8.92.65,14.87,14.87,0,0,1,6,2.32,9.55,9.55,0,0,1,3.45,4.57,21.18,21.18,0,0,1,1.08,7.32v3.4a18.39,18.39,0,0,1-1.16,7.07,9.64,9.64,0,0,1-3.58,4.42,15.92,15.92,0,0,1-6.13,2.29,51.68,51.68,0,0,1-8.77.65h-8.7l29,16.75Zm7.33-34a9.72,9.72,0,0,0-.44-3.19,3.6,3.6,0,0,0-1.45-1.89,6.9,6.9,0,0,0-2.83-.87,40,40,0,0,0-4.49-.21H74v15.07h27a39.18,39.18,0,0,0,4.46-.21,7.11,7.11,0,0,0,2.82-.87,3.57,3.57,0,0,0,1.49-1.89,10,10,0,0,0,.44-3.26Z"></path><path class="cls-1" d="M131.93,333.7V284.26h11V333.7Z"></path><path class="cls-1" d="M173,333.7a38.35,38.35,0,0,1-9.06-.91,13.05,13.05,0,0,1-5.8-2.9,10.86,10.86,0,0,1-3.08-5.22,29.49,29.49,0,0,1-.91-7.94V301.22a29.58,29.58,0,0,1,.91-7.9,10.85,10.85,0,0,1,3.08-5.26,13.26,13.26,0,0,1,5.8-2.9,38.41,38.41,0,0,1,9.06-.9H191.8a38.79,38.79,0,0,1,9.14.9,13.32,13.32,0,0,1,5.8,2.9,10.93,10.93,0,0,1,3.08,5.26,30,30,0,0,1,.9,7.9v15.51a29.94,29.94,0,0,1-.9,7.94,10.94,10.94,0,0,1-3.08,5.22,13.11,13.11,0,0,1-5.8,2.9,38.72,38.72,0,0,1-9.14.91Zm26.68-32a15.7,15.7,0,0,0-.4-3.84,5.41,5.41,0,0,0-1.34-2.47,5.1,5.1,0,0,0-2.58-1.3,18.85,18.85,0,0,0-4-.37H173.54a20.17,20.17,0,0,0-4.24.37,5.1,5.1,0,0,0-2.58,1.3,4.82,4.82,0,0,0-1.26,2.47,18.52,18.52,0,0,0-.33,3.84V316.3a19.61,19.61,0,0,0,.33,3.95,4.6,4.6,0,0,0,1.26,2.46A5,5,0,0,0,169.3,324a23,23,0,0,0,4.24.32h17.83a21.49,21.49,0,0,0,4-.32,5,5,0,0,0,2.58-1.24,5.13,5.13,0,0,0,1.34-2.46,16.63,16.63,0,0,0,.4-3.95Z"></path><path class="cls-2" d="M232.83,319.56V333.7h-11V284.26h39.58a39.93,39.93,0,0,1,8.85.83,13,13,0,0,1,5.72,2.76,10.46,10.46,0,0,1,3.09,5,26.4,26.4,0,0,1,.9,7.4v4.27a25.91,25.91,0,0,1-.87,7.32,9.17,9.17,0,0,1-3,4.64,12.68,12.68,0,0,1-5.69,2.43,48.42,48.42,0,0,1-9,.69Zm36.1-18.92q0-4-1.7-5.44c-1.14-1-3.18-1.45-6.13-1.45H232.83v16.89h28.42c2.9,0,4.9-.44,6-1.34s1.66-2.64,1.66-5.25Z"></path><path class="cls-2" d="M329.53,333.7l-28.92-18v18H289.66V284.26h38.71a52.83,52.83,0,0,1,8.92.65,14.93,14.93,0,0,1,6,2.32,9.55,9.55,0,0,1,3.45,4.57,21.18,21.18,0,0,1,1.08,7.32v3.4a18.39,18.39,0,0,1-1.16,7.07,9.6,9.6,0,0,1-3.59,4.42A15.8,15.8,0,0,1,337,316.3a51.77,51.77,0,0,1-8.77.65h-8.7l29,16.75Zm7.32-34a9.75,9.75,0,0,0-.43-3.19,3.6,3.6,0,0,0-1.45-1.89,6.9,6.9,0,0,0-2.83-.87,40,40,0,0,0-4.49-.21h-27v15.07h27a39.18,39.18,0,0,0,4.46-.21,7.11,7.11,0,0,0,2.82-.87,3.57,3.57,0,0,0,1.49-1.89,10,10,0,0,0,.43-3.26Z"></path><path class="cls-2" d="M376.07,333.7a38.35,38.35,0,0,1-9.06-.91,13.05,13.05,0,0,1-5.8-2.9,10.86,10.86,0,0,1-3.08-5.22,29.9,29.9,0,0,1-.91-7.94V301.22a30,30,0,0,1,.91-7.9,10.85,10.85,0,0,1,3.08-5.26,13.26,13.26,0,0,1,5.8-2.9,38.41,38.41,0,0,1,9.06-.9h18.78a38.75,38.75,0,0,1,9.13.9,13.26,13.26,0,0,1,5.8,2.9,10.85,10.85,0,0,1,3.08,5.26,30,30,0,0,1,.91,7.9v15.51a29.9,29.9,0,0,1-.91,7.94,10.86,10.86,0,0,1-3.08,5.22,13.05,13.05,0,0,1-5.8,2.9,38.69,38.69,0,0,1-9.13.91Zm26.68-32a15.7,15.7,0,0,0-.4-3.84,5.41,5.41,0,0,0-1.34-2.47,5.1,5.1,0,0,0-2.58-1.3,18.85,18.85,0,0,0-4-.37H376.58a20.23,20.23,0,0,0-4.24.37,5.1,5.1,0,0,0-2.58,1.3,4.82,4.82,0,0,0-1.26,2.47,18.52,18.52,0,0,0-.33,3.84V316.3a19.61,19.61,0,0,0,.33,3.95,4.6,4.6,0,0,0,1.26,2.46,5,5,0,0,0,2.58,1.24,23.09,23.09,0,0,0,4.24.32h17.83a21.49,21.49,0,0,0,4-.32,5,5,0,0,0,2.58-1.24,5.13,5.13,0,0,0,1.34-2.46,16.63,16.63,0,0,0,.4-3.95Z"></path><path class="cls-2" d="M442.69,333.7V293.75H422v-9.49h52.55v9.49H453.78V333.7Z"></path><path class="cls-2" d="M501.62,333.7a38.35,38.35,0,0,1-9.06-.91,13.05,13.05,0,0,1-5.8-2.9,10.86,10.86,0,0,1-3.08-5.22,29.9,29.9,0,0,1-.91-7.94V301.22a30,30,0,0,1,.91-7.9,10.85,10.85,0,0,1,3.08-5.26,13.26,13.26,0,0,1,5.8-2.9,38.41,38.41,0,0,1,9.06-.9H513.8v9.35H501.62a15.61,15.61,0,0,0-3.91.4,5.31,5.31,0,0,0-2.43,1.27,4.38,4.38,0,0,0-1.23,2.32,16.6,16.6,0,0,0-.33,3.62v3.34h42.12v8.77H493.72v3.48a17,17,0,0,0,.33,3.69,4.55,4.55,0,0,0,1.19,2.32,4.73,4.73,0,0,0,2.43,1.2,19.7,19.7,0,0,0,3.95.32h34.51v9.36Z"></path><path class="cls-2" d="M564.61,333.7a38.35,38.35,0,0,1-9.06-.91,13.11,13.11,0,0,1-5.8-2.9,10.94,10.94,0,0,1-3.08-5.22,29.94,29.94,0,0,1-.9-7.94V301.22a30,30,0,0,1,.9-7.9,10.93,10.93,0,0,1,3.08-5.26,13.32,13.32,0,0,1,5.8-2.9,38.41,38.41,0,0,1,9.06-.9H598.9v9.49H565.12a18.37,18.37,0,0,0-4.17.4,5.48,5.48,0,0,0-2.57,1.34,5.17,5.17,0,0,0-1.31,2.5,17.23,17.23,0,0,0-.36,3.81v14.5a17.14,17.14,0,0,0,.36,3.84,5,5,0,0,0,1.31,2.46,5.13,5.13,0,0,0,2.61,1.31,20.37,20.37,0,0,0,4.2.36H598.9v9.43Z"></path><path class="cls-2" d="M626.74,333.7V293.75H606v-9.49h52.56v9.49H637.83V333.7Z"></path><path class="cls-2" d="M95.69,371.27c0,3.11-2.35,4.89-6.93,4.89H80.12V358.05h8.12c4.17,0,6.5,1.76,6.5,4.69a4.29,4.29,0,0,1-2.44,4A4.37,4.37,0,0,1,95.69,371.27Zm-13-11.12v5.79H88c2.64,0,4.14-1,4.14-2.89s-1.5-2.9-4.14-2.9Zm10.37,10.92c0-2.1-1.55-3-4.42-3h-6v6h6C91.53,374.07,93.08,373.16,93.08,371.07Z"></path><path class="cls-2" d="M101.25,358.05h2.59v18.11h-2.59Z"></path><path class="cls-2" d="M109.35,367.11c0-5.3,4.09-9.26,9.65-9.26s9.6,3.93,9.6,9.26-4.09,9.26-9.6,9.26S109.35,372.41,109.35,367.11Zm16.66,0a7,7,0,1,0-7,7A6.8,6.8,0,0,0,126,367.11Z"></path><path class="cls-2" d="M136.69,360.3v6.32h9.08v2.22h-9.08v7.32H134.1V358.05h12.79v2.25Z"></path><path class="cls-2" d="M150.4,367.11c0-5.3,4.09-9.26,9.65-9.26s9.6,3.93,9.6,9.26-4.09,9.26-9.6,9.26S150.4,372.41,150.4,367.11Zm16.66,0a7,7,0,1,0-7,7A6.8,6.8,0,0,0,167.06,367.11Z"></path><path class="cls-2" d="M187.27,376.16l-3.91-5.56c-.36,0-.75,0-1.14,0h-4.48v5.51h-2.58V358.05h7.06c4.71,0,7.56,2.38,7.56,6.32a5.7,5.7,0,0,1-4,5.71l4.3,6.08Zm-.08-11.79c0-2.59-1.74-4.07-5.05-4.07h-4.4v8.15h4.4C185.45,368.45,187.19,367,187.19,364.37Z"></path><path class="cls-2" d="M198.85,360.3h-6.21v-2.25h15v2.25h-6.21v15.86h-2.56Z"></path><path class="cls-2" d="M212,358.05h2.59v18.11H212Z"></path><path class="cls-2" d="M224.15,360.3v6.32h9.08v2.22h-9.08v7.32h-2.59V358.05h12.79v2.25Z"></path><path class="cls-2" d="M239.54,358.05h2.59v18.11h-2.59Z"></path><path class="cls-2" d="M247.64,367.11c0-5.36,4.09-9.26,9.6-9.26a8.93,8.93,0,0,1,6.88,2.82l-1.68,1.63a6.71,6.71,0,0,0-5.1-2.15,7,7,0,1,0,0,13.92,6.76,6.76,0,0,0,5.1-2.17l1.68,1.63a9,9,0,0,1-6.91,2.84C251.73,376.37,247.64,372.47,247.64,367.11Z"></path><path class="cls-2" d="M280.47,371.64h-9.63l-2,4.52h-2.66l8.2-18.11H277l8.23,18.11h-2.72Zm-.91-2.07-3.9-8.88-3.91,8.88Z"></path><path class="cls-2" d="M305,358.05v18.11h-2.12L292,362.66v13.5h-2.58V358.05h2.12l10.86,13.51V358.05Z"></path><path class="cls-2" d="M315.57,360.3h-6.21v-2.25h15v2.25h-6.21v15.86h-2.56Z"></path><path class="cls-2" d="M341.85,373.91v2.25H328.71V358.05h12.78v2.25H331.3v5.57h9.08v2.2H331.3v5.84Z"></path><path class="cls-2" d="M361.2,354.38h2.25l-8.54,24.37h-2.25Z"></path><path class="cls-2" d="M386.81,371.64h-9.62l-2,4.52h-2.66l8.2-18.11h2.56l8.23,18.11H388.8Zm-.9-2.07L382,360.69l-3.91,8.88Z"></path><path class="cls-2" d="M411.33,358.05v18.11h-2.12l-10.86-13.5v13.5h-2.59V358.05h2.12l10.87,13.51V358.05Z"></path><path class="cls-2" d="M421.91,360.3H415.7v-2.25h15v2.25h-6.21v15.86h-2.56Z"></path><path class="cls-2" d="M435.05,358.05h2.59v18.11h-2.59Z"></path><path class="cls-2" d="M460.2,358.05v18.11h-2.59v-8.07h-10.4v8.07h-2.59V358.05h2.59v7.79h10.4v-7.79Z"></path><path class="cls-2" d="M480.32,373.91v2.25H467.18V358.05H480v2.25H469.77v5.57h9.08v2.2h-9.08v5.84Z"></path><path class="cls-2" d="M486.06,358.05h2.59v15.86h9.81v2.25h-12.4Z"></path><path class="cls-2" d="M514.6,371.64H505l-2,4.52h-2.66l8.2-18.11h2.56l8.23,18.11h-2.72Zm-.91-2.07-3.9-8.88-3.91,8.88Z"></path><path class="cls-2" d="M523.55,358.05h7.63c5.82,0,9.78,3.68,9.78,9.06s-4,9.05-9.78,9.05h-7.63ZM531,373.91c4.48,0,7.35-2.74,7.35-6.8s-2.87-6.81-7.35-6.81h-4.89v13.61Z"></path><path class="cls-2" d="M557.75,371.64h-9.63l-2,4.52h-2.67l8.21-18.11h2.56l8.23,18.11h-2.72Zm-.91-2.07-3.91-8.88-3.9,8.88Z"></path><path class="cls-2" d="M565,374.09l1-2a9.32,9.32,0,0,0,6,2.09c3.13,0,4.48-1.21,4.48-2.79,0-4.43-11-1.63-11-8.36,0-2.79,2.17-5.17,6.93-5.17a10.69,10.69,0,0,1,5.82,1.6l-.85,2.07a9.34,9.34,0,0,0-5-1.47c-3.08,0-4.4,1.29-4.4,2.87,0,4.42,11,1.65,11,8.3,0,2.77-2.22,5.15-7,5.15A10.71,10.71,0,0,1,565,374.09Z"></path><path class="cls-3" d="M284.93,82.67c15.19-20.1,23-36.28,15.68-55.4-48-27-76.47-26-85.78,2.46-.49,2.94-1.47,5.88-2,9.31-6.87,41.67-3.92,99,8.33,149,11.28,48,26.47,65.2,80.39,42.16a9.83,9.83,0,0,1,3.93-2c-52.95-.49-62.26-79.42-27-135.79a113.36,113.36,0,0,1,6.38-9.8Z"></path><path class="cls-4" d="M313.66,178.82c-47-11.76-52.43-54.39-35.28-86.24-35.28,56.35-26,135.24,26.95,135.73,19.6-33.32,36.75-110.74,10.29-177.38,8.82,44.59,9.8,82.81-2,127.89Z"></path><path class="cls-5" d="M335,175.41c73.54-35.3,106.4-107.87,48.54-134.35-37.75-16.18-76-27.45-115.22-37.75-27.95-8.83-45.6,0-53.45,26.48,9.32-28.44,37.76-29.42,85.81-2.46C376.13,62.64,391.82,145.5,335,175.41Z"></path><path class="cls-6" d="M383.32,41.12c57.85,26.48,25,99-48.55,134.35a1.71,1.71,0,0,1-1,.49c-2.45,17.16-2.94,21.57-9.31,42.17,46.58-26,84.82-56.88,111.79-89.73,21.57-30.89,18.14-48.05-16.67-69.62a275.5,275.5,0,0,0-36.28-17.66Z"></path><path class="cls-1" d="M18.85,333.7a38.23,38.23,0,0,1-9.06-.91,13.05,13.05,0,0,1-5.8-2.9,10.86,10.86,0,0,1-3.08-5.22A29.54,29.54,0,0,1,0,316.73V301.22a29.58,29.58,0,0,1,.91-7.9A10.85,10.85,0,0,1,4,288.06a13.16,13.16,0,0,1,5.8-2.9,38.29,38.29,0,0,1,9.06-.9H53.13v9.49H19.35a18.21,18.21,0,0,0-4.16.4,5.47,5.47,0,0,0-2.58,1.34,5.08,5.08,0,0,0-1.3,2.5A17.23,17.23,0,0,0,11,301.8v14.5a17.08,17.08,0,0,0,.36,3.84,5,5,0,0,0,1.3,2.46,5.13,5.13,0,0,0,2.61,1.31,20.48,20.48,0,0,0,4.21.36h33.7v9.43Z"></path><path class="cls-1" d="M102.93,333.7,74,315.72v18h-11V284.26h38.71a52.74,52.74,0,0,1,8.92.65,14.73,14.73,0,0,1,6,2.32,9.55,9.55,0,0,1,3.45,4.57,21.18,21.18,0,0,1,1.08,7.32v3.41a18.38,18.38,0,0,1-1.16,7.06,9.64,9.64,0,0,1-3.58,4.42,15.85,15.85,0,0,1-6.13,2.29,51.68,51.68,0,0,1-8.77.65h-8.7l29,16.75Zm7.33-34a9.72,9.72,0,0,0-.44-3.19,3.6,3.6,0,0,0-1.45-1.89,6.9,6.9,0,0,0-2.83-.87,39.88,39.88,0,0,0-4.49-.21H74v15.07h27a39.18,39.18,0,0,0,4.46-.21,7.11,7.11,0,0,0,2.82-.87,3.57,3.57,0,0,0,1.49-1.89,10,10,0,0,0,.44-3.26Z"></path><path class="cls-1" d="M131.93,333.7V284.26h11V333.7Z"></path><path class="cls-1" d="M173,333.7a38.35,38.35,0,0,1-9.06-.91,13.05,13.05,0,0,1-5.8-2.9,10.86,10.86,0,0,1-3.08-5.22,29.54,29.54,0,0,1-.91-7.94V301.22a29.58,29.58,0,0,1,.91-7.9,10.85,10.85,0,0,1,3.08-5.26,13.16,13.16,0,0,1,5.8-2.9,38.41,38.41,0,0,1,9.06-.9h18.78a38.75,38.75,0,0,1,9.13.9,13.21,13.21,0,0,1,5.8,2.9,10.93,10.93,0,0,1,3.08,5.26,30,30,0,0,1,.9,7.9v15.51a30,30,0,0,1-.9,7.94,10.94,10.94,0,0,1-3.08,5.22,13.11,13.11,0,0,1-5.8,2.9,38.69,38.69,0,0,1-9.13.91Zm26.68-32a15.7,15.7,0,0,0-.4-3.84,5.41,5.41,0,0,0-1.34-2.47,5.1,5.1,0,0,0-2.58-1.3,18.22,18.22,0,0,0-4-.37H173.54a19.52,19.52,0,0,0-4.24.37,5.1,5.1,0,0,0-2.58,1.3,4.82,4.82,0,0,0-1.26,2.47,18.52,18.52,0,0,0-.33,3.84V316.3a19.61,19.61,0,0,0,.33,3.95,4.6,4.6,0,0,0,1.26,2.46,5,5,0,0,0,2.58,1.23,22.05,22.05,0,0,0,4.24.33h17.83a20.58,20.58,0,0,0,4-.33,5,5,0,0,0,2.58-1.23,5.13,5.13,0,0,0,1.34-2.46,16.63,16.63,0,0,0,.4-3.95Z"></path><path class="cls-2" d="M232.83,319.56V333.7h-11V284.26h39.58a39.93,39.93,0,0,1,8.85.83,13,13,0,0,1,5.72,2.76,10.46,10.46,0,0,1,3.09,5,26.38,26.38,0,0,1,.9,7.39v4.28a25.91,25.91,0,0,1-.87,7.32,9.17,9.17,0,0,1-3,4.64,12.68,12.68,0,0,1-5.69,2.43,48.42,48.42,0,0,1-9,.69Zm36.1-18.92q0-4-1.7-5.44c-1.14-1-3.18-1.45-6.13-1.45H232.83v16.89h28.42c2.9,0,4.9-.44,6-1.34s1.66-2.64,1.66-5.25Z"></path><path class="cls-2" d="M329.53,333.7l-28.92-18v18H289.66V284.26h38.71a52.74,52.74,0,0,1,8.92.65,14.79,14.79,0,0,1,6,2.32,9.55,9.55,0,0,1,3.45,4.57,21.18,21.18,0,0,1,1.08,7.32v3.41a18.38,18.38,0,0,1-1.16,7.06,9.64,9.64,0,0,1-3.58,4.42A15.92,15.92,0,0,1,337,316.3a51.77,51.77,0,0,1-8.77.65h-8.7l29,16.75Zm7.32-34a9.75,9.75,0,0,0-.43-3.19,3.6,3.6,0,0,0-1.45-1.89,6.9,6.9,0,0,0-2.83-.87,40,40,0,0,0-4.49-.21h-27v15.07h27a39.18,39.18,0,0,0,4.46-.21,7.11,7.11,0,0,0,2.82-.87,3.57,3.57,0,0,0,1.49-1.89,10,10,0,0,0,.43-3.26Z"></path><path class="cls-2" d="M376.07,333.7a38.35,38.35,0,0,1-9.06-.91,13.05,13.05,0,0,1-5.8-2.9,10.86,10.86,0,0,1-3.08-5.22,30,30,0,0,1-.91-7.94V301.22a30,30,0,0,1,.91-7.9,10.85,10.85,0,0,1,3.08-5.26,13.16,13.16,0,0,1,5.8-2.9,38.41,38.41,0,0,1,9.06-.9h18.78a38.75,38.75,0,0,1,9.13.9,13.16,13.16,0,0,1,5.8,2.9,10.93,10.93,0,0,1,3.08,5.26,30,30,0,0,1,.91,7.9v15.51a30,30,0,0,1-.91,7.94,10.94,10.94,0,0,1-3.08,5.22,13.05,13.05,0,0,1-5.8,2.9,38.69,38.69,0,0,1-9.13.91Zm26.68-32a15.7,15.7,0,0,0-.4-3.84,5.41,5.41,0,0,0-1.34-2.47,5.1,5.1,0,0,0-2.58-1.3,18.22,18.22,0,0,0-4-.37H376.58a19.58,19.58,0,0,0-4.24.37,5.1,5.1,0,0,0-2.58,1.3,4.82,4.82,0,0,0-1.26,2.47,18.52,18.52,0,0,0-.33,3.84V316.3a19.61,19.61,0,0,0,.33,3.95,4.6,4.6,0,0,0,1.26,2.46,5,5,0,0,0,2.58,1.23,22.12,22.12,0,0,0,4.24.33h17.83a20.58,20.58,0,0,0,4-.33,5,5,0,0,0,2.58-1.23,5.13,5.13,0,0,0,1.34-2.46,16.63,16.63,0,0,0,.4-3.95Z"></path><path class="cls-2" d="M442.69,333.7V293.75H422v-9.49h52.55v9.49H453.78V333.7Z"></path><path class="cls-2" d="M501.62,333.7a38.35,38.35,0,0,1-9.06-.91,13.05,13.05,0,0,1-5.8-2.9,10.86,10.86,0,0,1-3.08-5.22,30,30,0,0,1-.91-7.94V301.22a30,30,0,0,1,.91-7.9,10.85,10.85,0,0,1,3.08-5.26,13.16,13.16,0,0,1,5.8-2.9,38.41,38.41,0,0,1,9.06-.9H513.8v9.35H501.62a15.61,15.61,0,0,0-3.91.4,5.31,5.31,0,0,0-2.43,1.27,4.38,4.38,0,0,0-1.23,2.32,16.6,16.6,0,0,0-.33,3.62v3.33h42.12v8.78H493.72v3.48a17,17,0,0,0,.33,3.69,4.55,4.55,0,0,0,1.19,2.32,4.73,4.73,0,0,0,2.43,1.2,19.7,19.7,0,0,0,3.95.32h34.51v9.36Z"></path><path class="cls-2" d="M564.61,333.7a38.35,38.35,0,0,1-9.06-.91,13.11,13.11,0,0,1-5.8-2.9,10.94,10.94,0,0,1-3.08-5.22,30,30,0,0,1-.9-7.94V301.22a30,30,0,0,1,.9-7.9,10.93,10.93,0,0,1,3.08-5.26,13.21,13.21,0,0,1,5.8-2.9,38.41,38.41,0,0,1,9.06-.9H598.9v9.49H565.12a18.37,18.37,0,0,0-4.17.4,5.48,5.48,0,0,0-2.57,1.34,5.08,5.08,0,0,0-1.3,2.5,16.59,16.59,0,0,0-.37,3.81v14.5a16.45,16.45,0,0,0,.37,3.84,5,5,0,0,0,1.3,2.46,5.13,5.13,0,0,0,2.61,1.31,20.37,20.37,0,0,0,4.2.36H598.9v9.43Z"></path><path class="cls-2" d="M626.74,333.7V293.75H606v-9.49h52.56v9.49H637.83V333.7Z"></path><path class="cls-2" d="M95.69,371.28c0,3.1-2.35,4.88-6.93,4.88H80.12v-18.1h8.12c4.16,0,6.49,1.76,6.49,4.68a4.28,4.28,0,0,1-2.43,4A4.39,4.39,0,0,1,95.69,371.28Zm-13-11.13V366H88c2.63,0,4.14-1,4.14-2.9s-1.51-2.9-4.14-2.9Zm10.38,10.92c0-2.1-1.56-3-4.43-3h-6v6h6C91.52,374.07,93.08,373.16,93.08,371.07Z"></path><path class="cls-2" d="M101.25,358.06h2.59v18.1h-2.59Z"></path><path class="cls-2" d="M109.35,367.11c0-5.3,4.08-9.26,9.65-9.26s9.59,3.93,9.59,9.26-4.08,9.26-9.59,9.26S109.35,372.41,109.35,367.11Zm16.66,0a7,7,0,1,0-7,7A6.8,6.8,0,0,0,126,367.11Z"></path><path class="cls-2" d="M136.69,360.31v6.31h9.08v2.22h-9.08v7.32H134.1v-18.1h12.78v2.25Z"></path><path class="cls-2" d="M150.4,367.11c0-5.3,4.09-9.26,9.65-9.26s9.6,3.93,9.6,9.26-4.09,9.26-9.6,9.26S150.4,372.41,150.4,367.11Zm16.66,0a7,7,0,1,0-7,7A6.8,6.8,0,0,0,167.06,367.11Z"></path><path class="cls-2" d="M187.26,376.16l-3.9-5.56c-.37,0-.75,0-1.14,0h-4.48v5.51h-2.58v-18.1h7.06c4.71,0,7.55,2.38,7.55,6.31a5.73,5.73,0,0,1-4,5.72l4.29,6.07Zm-.08-11.79c0-2.59-1.73-4.06-5-4.06h-4.4v8.15h4.4C185.45,368.46,187.18,367,187.18,364.37Z"></path><path class="cls-2" d="M198.85,360.31h-6.21v-2.25h15v2.25h-6.21v15.85h-2.56Z"></path><path class="cls-2" d="M212,358.06h2.59v18.1H212Z"></path><path class="cls-2" d="M224.15,360.31v6.31h9.08v2.22h-9.08v7.32h-2.59v-18.1h12.78v2.25Z"></path><path class="cls-2" d="M239.54,358.06h2.59v18.1h-2.59Z"></path><path class="cls-2" d="M247.64,367.11c0-5.35,4.09-9.26,9.59-9.26a9,9,0,0,1,6.89,2.82l-1.69,1.63a6.67,6.67,0,0,0-5.09-2.15,7,7,0,1,0,0,13.92,6.73,6.73,0,0,0,5.09-2.17l1.69,1.63a9,9,0,0,1-6.91,2.84C251.73,376.37,247.64,372.46,247.64,367.11Z"></path><path class="cls-2" d="M280.46,371.64h-9.62l-2,4.52h-2.66l8.2-18.1H277l8.22,18.1h-2.71Zm-.9-2.07-3.91-8.87-3.9,8.87Z"></path><path class="cls-2" d="M305,358.06v18.1h-2.12L292,362.66v13.5h-2.58v-18.1h2.12l10.86,13.5v-13.5Z"></path><path class="cls-2" d="M315.57,360.31h-6.21v-2.25h15v2.25h-6.21v15.85h-2.56Z"></path><path class="cls-2" d="M341.85,373.91v2.25H328.71v-18.1h12.78v2.25H331.3v5.56h9.07v2.2H331.3v5.84Z"></path><path class="cls-2" d="M361.2,354.38h2.25l-8.54,24.37h-2.25Z"></path><path class="cls-2" d="M386.81,371.64h-9.62l-2,4.52h-2.66l8.2-18.1h2.56l8.23,18.1H388.8Zm-.91-2.07L382,360.7l-3.91,8.87Z"></path><path class="cls-2" d="M411.33,358.06v18.1h-2.12l-10.87-13.5v13.5h-2.58v-18.1h2.12l10.86,13.5v-13.5Z"></path><path class="cls-2" d="M421.91,360.31H415.7v-2.25h15v2.25h-6.21v15.85h-2.56Z"></path><path class="cls-2" d="M435.05,358.06h2.59v18.1h-2.59Z"></path><path class="cls-2" d="M460.19,358.06v18.1h-2.58v-8.07h-10.4v8.07h-2.59v-18.1h2.59v7.78h10.4v-7.78Z"></path><path class="cls-2" d="M480.32,373.91v2.25H467.18v-18.1H480v2.25H469.77v5.56h9.08v2.2h-9.08v5.84Z"></path><path class="cls-2" d="M486.06,358.06h2.59v15.85h9.8v2.25H486.06Z"></path><path class="cls-2" d="M514.6,371.64H505l-2,4.52h-2.66l8.2-18.1h2.56l8.22,18.1h-2.71Zm-.91-2.07-3.91-8.87-3.9,8.87Z"></path><path class="cls-2" d="M523.55,358.06h7.63c5.82,0,9.77,3.67,9.77,9.05s-4,9.05-9.77,9.05h-7.63ZM531,373.91c4.48,0,7.35-2.74,7.35-6.8s-2.87-6.8-7.35-6.8h-4.89v13.6Z"></path><path class="cls-2" d="M557.74,371.64h-9.62l-2,4.52h-2.67l8.2-18.1h2.57l8.22,18.1h-2.71Zm-.9-2.07-3.91-8.87-3.9,8.87Z"></path><path class="cls-2" d="M565,374.09l1-2a9.32,9.32,0,0,0,6,2.09c3.13,0,4.48-1.21,4.48-2.79,0-4.42-11-1.63-11-8.36,0-2.79,2.17-5.17,6.93-5.17a10.69,10.69,0,0,1,5.82,1.6l-.85,2.07a9.36,9.36,0,0,0-5-1.47c-3.08,0-4.4,1.29-4.4,2.87,0,4.42,11,1.66,11,8.3,0,2.77-2.22,5.15-7,5.15A10.71,10.71,0,0,1,565,374.09Z"></path></g></g></svg> 